<svg 
          width="29.333332061767578" 
          height="21.333332061767578" fill="none" 
          xmlns="http://www.w3.org/2000/svg">
          <path d="M 14.598704658911215 14.052827633252036 C 19.173615260256444 14.052827633252036 23.07996014046115 14.77811566324334 23.07996014046115 17.680471002232707 C 23.07996014046115 20.581625347437864 19.198686721165068 21.333332061767578 14.598704658911215 21.333332061767578 C 10.023794057565986 21.333332061767578 6.117451084709831 20.608043395993434 6.117451084709831 17.706889050788277 C 6.117451084709831 14.80453371179891 9.99872259665736 14.052827633252036 14.598704658911215 14.052827633252036 Z M 21.91342831033233 12.305169961541651 C 23.662448175208528 12.272748111322592 25.542793994551207 12.512910275881826 26.237626527831296 12.683425147329217 C 27.70966838881451 12.972820124656703 28.677896329364014 13.563617533627053 29.07903672366989 14.422195846506156 C 29.418095902901108 15.127070717390083 29.418095902901108 15.944822155744447 29.07903672366989 16.64849627126273 C 28.465387421721168 17.980193417458068 26.487146024105165 18.407681053418983 25.718293664601582 18.51815558365047 C 25.55950887469046 18.542171716659894 25.431763330102243 18.404078548903485 25.448477595568626 18.244370962518133 C 25.841260902465674 14.554285135609746 22.716902383880758 12.804706843413456 21.9086523095628 12.402435835057304 C 21.874030044175015 12.384423689975872 21.86686778987136 12.35680439183284 21.870449389669375 12.339993059238168 C 21.87283712291979 12.327984980315822 21.887163244112077 12.308772388136498 21.91342831033233 12.305169961541651 Z M 7.09144307231426 12.302681507507032 L 7.4207989336881095 12.30565061336847 C 7.447064079381217 12.309253039963318 7.460196743342158 12.328466074210397 7.462584489941532 12.339273353063618 C 7.4661660897395485 12.357285485727417 7.45900267066184 12.383702270167888 7.425574298674787 12.402915215318444 C 6.616130303637306 12.805186223674596 3.4917720234709577 14.554764833762306 3.884555330368006 18.243649984777903 C 3.9012695163615323 18.404558505342827 3.774719273333718 18.54145156841759 3.6159345330931334 18.518636235477288 C 2.8470820941166926 18.408161844323303 0.8688390673071353 17.980672877192063 0.25518976535841437 16.64897565152387 C -0.08506325511947144 15.944100860112798 -0.08506325511947144 15.127551289744048 0.25518976535841437 14.422676498332976 C 0.6563301596642903 13.564098026508162 1.6233650139592595 12.973299942018546 3.095407033888188 12.682704169588987 C 3.791433408414946 12.513390093243668 5.6705852275652395 12.273228775567045 7.4207989336881095 12.30565061336847 L 7.09144307231426 12.302681507507032 Z M 14.598704658911215 0 C 17.713511970685637 0 20.211089211763465 2.5096907709226457 20.211089211763465 5.643802306425414 C 20.211089211763465 8.776712848143973 17.713511970685637 11.288804970852198 14.598704658911215 11.288804970852198 C 11.483897347136793 11.288804970852198 8.986320741841816 8.776712848143973 8.986320741841816 5.643802306425414 C 8.986320741841816 2.5096907709226457 11.483897347136793 0 14.598704658911215 0 Z M 22.217866570247267 0.9411940808379171 C 25.226419626882407 0.9411940808379171 27.58908859502519 3.7883117325119997 26.784420123920096 6.959648353279704 C 26.24120920392772 9.094686760821702 24.274903198809874 10.512842212348609 22.08415126435747 10.455203386831045 C 21.864479150288894 10.449199333710474 21.648389692448532 10.428785524539979 21.439462368150338 10.392761246794748 C 21.287840903874233 10.366343449075377 21.211432938188473 10.194627909185776 21.297391604045266 10.067342158118322 C 22.13310074229233 8.830508897870217 22.609455400114793 7.342706560529848 22.609455400114793 5.745630557598815 C 22.609455400114793 4.078907723491909 22.088927980382707 2.52506113896402 21.18516830161835 1.2510027934509793 C 21.15651536912378 1.2113760981136856 21.135024637226604 1.150134862454637 21.163677569721173 1.104504122068235 C 21.18755503540447 1.0672790417703526 21.231728676482565 1.0480661077956654 21.273514143329024 1.0384596364621501 C 21.577950932996117 0.9760175709316554 21.890746180978812 0.9411940808379171 22.217866570247267 0.9411940808379171 Z M 7.114570945050301 0.9410739973540672 C 7.441691393923396 0.9410739973540672 7.754485946518597 0.9758974874478055 8.060116736378074 1.0383395529783002 C 8.100708322241436 1.0479460243118155 8.146075260673843 1.0683597707732617 8.169952674203076 1.104384038584385 C 8.197411685978121 1.150014778970787 8.177115455945732 1.2112560146298357 8.148462578088749 1.2508827099671294 C 7.244702819851537 2.52494105548017 6.724175479592304 4.078787560535204 6.724175479592304 5.74551039464211 C 6.724175479592304 7.342586397573143 7.200530137414768 8.830388734913512 8.036239275661831 10.067221995161617 C 8.122197941518627 10.194507746229071 8.045790025503402 10.366223921901511 7.894168511556762 10.392641719620883 C 7.684047346011899 10.429866797435238 7.469150457852503 10.449079184413167 7.249478343783928 10.45508322387434 C 5.058726409331526 10.512722059326013 3.0924223512986577 9.094567233647837 2.5492113915698527 6.959528826105839 C 1.7433489997452356 3.7881922053381345 4.10601788841516 0.9410739973540672 7.114570945050301 0.9410739973540672 Z" fill="rgb(0,0,0)"/>
        </svg>