<svg 
          width="25.333332061767578" 
          height="26.666667938232422" fill="none" 
          xmlns="http://www.w3.org/2000/svg">
          <path d="M 13.622967354140297 0 C 14.63129860235686 0 15.544247204667744 0.559999969482419 16.0484127890396 1.3866666819254532 C 16.293682651460372 1.7866667168935122 16.45719569770345 2.2800000006357775 16.416317433659156 2.8000000063578225 C 16.389065302333105 3.2000000413258816 16.51170009943305 3.6000001955032355 16.729717686483223 3.973333548227947 C 17.42464868187572 5.10666696739197 18.96439775009831 5.533333684603377 20.16349436959909 4.893333668390914 C 21.512478066537465 4.120000320434576 23.215740310146526 4.5866666437784716 23.992427893232257 5.906666719436634 L 24.905376455806714 7.480000534693408 C 25.695690136841318 8.80000061035157 25.25965484353169 10.493333283742242 23.89704520759015 11.253333310445122 C 22.73882688193599 11.93333333015439 22.33004402294267 13.440000062306693 23.02497493886231 14.586666802724174 C 23.242992525912484 14.946666834195428 23.488262229387548 15.25333395814895 23.869793011692405 15.440000634511305 C 24.346706439902942 15.693333976745599 24.7146110845225 16.093333932240796 24.973506945551076 16.493333967208855 C 25.47767252992293 17.32000067965189 25.436794315549168 18.333334287007652 24.94625474965333 19.22666768519084 L 23.992427893232257 20.82666750717162 C 23.48826218965112 21.68000086212157 22.54806143117892 22.213334189097075 21.580608556281828 22.213334189097075 C 21.10369512807129 22.213334189097075 20.57227722859241 22.08000187063221 20.136242173701344 21.81333518727624 C 19.781963666767087 21.58666850741708 19.37318060909163 21.50666657320653 18.937145554200566 21.50666657320653 C 17.58816185726219 21.50666657320653 16.45719569770345 22.613335416158087 16.416317433659156 23.93333549181625 C 16.416317433659156 25.46666886647547 15.162716422362887 26.666667938232422 13.595715158242552 26.666667938232422 L 11.742565837195894 26.666667938232422 C 10.161938475126686 26.666667938232422 8.908337463830417 25.46666886647547 8.908337463830417 23.93333549181625 C 8.881085277866779 22.613335416158087 7.750119138176256 21.50666657320653 6.40113544123788 21.50666657320653 C 5.951474208925088 21.50666657320653 5.5426912704589135 21.58666850741708 5.202038821737101 21.81333518727624 C 4.766003687373182 22.08000187063221 4.2209597694182825 22.213334189097075 3.757672439156618 22.213334189097075 C 2.776593386837799 22.213334189097075 1.836392787311309 21.68000086212157 1.3322271632030271 20.82666750717162 L 0.39202640473082573 19.22666768519084 C -0.11213921937745619 18.36000100898743 -0.13939141527520116 17.32000067965189 0.36477420883308076 16.493333967208855 C 0.5827917760150405 16.093333932240796 0.991574714481215 15.693333976745599 1.4548620447428795 15.440000634511305 C 1.836392787311309 15.25333395814895 2.0816625702592275 14.946666834195428 2.313306215521846 14.586666802724174 C 2.9946111129654702 13.440000062306693 2.5858281744992957 11.93333333015439 1.4276098488451345 11.253333310445122 C 0.07862615190675859 10.493333283742242 -0.3574089824571609 8.80000061035157 0.4192786006285707 7.480000534693408 L 1.3322271632030271 5.906666719436634 C 2.1225408442376312 4.5866666437784716 3.812176830952108 4.120000320434576 5.1747866258393564 4.893333668390914 C 6.360257147391263 5.533333684603377 7.900006215613853 5.10666696739197 8.59493721100635 3.973333548227947 C 8.81295477818831 3.6000001955032355 8.935589662211688 3.2000000413258816 8.908337463830417 2.8000000063578225 C 8.881085277866779 2.2800000006357775 9.03097234537027 1.7866667168935122 9.289868206398847 1.3866666819254532 C 9.794033830507129 0.559999969482419 10.706982393081585 0.026666667342185944 11.701687543349276 0 L 13.622967354140297 0 Z M 12.682766595668095 9.573333560943592 C 10.543469217695115 9.573333560943592 8.81295477818831 11.253334105173757 8.81295477818831 13.346667608261122 C 8.81295477818831 15.440001111348487 10.543469217695115 17.106667380650833 12.682766595668095 17.106667380650833 C 14.822063973641075 17.106667380650833 16.511700119301263 15.440001111348487 16.511700119301263 13.346667608261122 C 16.511700119301263 11.253334105173757 14.822063973641075 9.573333560943592 12.682766595668095 9.573333560943592 Z" fill="rgb(0,0,0)"/>
        </svg>