<svg 
          width="26.666667938232422" 
          height="26.666667938232422" fill="none" 
          xmlns="http://www.w3.org/2000/svg">
          <path d="M 13.360001247406034 0 C 20.933334712982195 0 26.666667938232422 6.209314642396657 26.666667938232422 13.313304264385078 C 26.666667938232422 21.552329773219206 19.946667668660485 26.666667938232422 13.333333969116211 26.666667938232422 C 11.14666721725464 26.666667938232422 8.720000364939368 26.079120607969887 6.773333554585769 24.930731372709122 C 6.093333534876501 24.516777095005157 5.52000016466776 24.209650280140995 4.786666780471796 24.450010829767052 L 2.093333503087365 25.251211734670505 C 1.4133334833780964 25.464865607334666 0.8000000301996861 24.93073089587194 1.0000000476837156 24.209649286730198 L 1.8933333663940402 21.21849542705986 C 2.04000003925959 20.804541149355895 2.013333456357321 20.36388029403111 1.8000001176198337 20.016692798138862 C 0.6533333772023524 17.906861205428136 0 15.59672890965437 0 13.353363673847342 C 0 6.329494142349267 5.613334287643465 0 13.360001247406034 0 Z M 19.45333446439108 11.65748651778631 C 18.50666778119406 11.65748651778631 17.746668072382633 12.41862872848327 17.746668072382633 13.366717658045308 C 17.746668072382633 14.3014530007737 18.50666778119406 15.07594752673849 19.45333446439108 15.07594752673849 C 20.4000011475881 15.07594752673849 21.160000856399527 14.3014530007737 21.160000856399527 13.366717658045308 C 21.160000856399527 12.41862872848327 20.4000011475881 11.65748651778631 19.45333446439108 11.65748651778631 Z M 13.306666690826386 11.65748651778631 C 12.373333328882824 11.644133156953618 11.600000298817939 12.418628251646089 11.600000298817939 13.353363673847342 C 11.600000298817939 14.301452523936517 12.360000007629367 15.062594193224594 13.306666690826386 15.07594752673849 C 14.253333374023406 15.07594752673849 15.013334354400648 14.3014530007737 15.013334354400648 13.366717658045308 C 15.013334354400648 12.41862872848327 14.253333374023406 11.65748651778631 13.306666690826386 11.65748651778631 Z M 7.160000188827507 11.65748651778631 C 6.213333505630486 11.65748651778631 5.45333379681906 12.41862872848327 5.45333379681906 13.366717658045308 C 5.45333379681906 14.3014530007737 6.226666826883944 15.07594752673849 7.160000188827507 15.07594752673849 C 8.106666872024526 15.062594193224594 8.866667216618861 14.3014530007737 8.866667216618861 13.366717658045308 C 8.866667216618861 12.41862872848327 8.106666872024526 11.65748651778631 7.160000188827507 11.65748651778631 Z" fill="rgb(0,0,0)"/>
        </svg>