<svg 
          width="24" 
          height="26.666677474975586" fill="none" 
          xmlns="http://www.w3.org/2000/svg">
          <path d="M 16.8662109375 0.000003006992069907144 C 17.432278951009113 -0.0013266382436786547 17.879867224333186 0.43845312845992135 17.881183624267578 1.0248261537112968 L 17.882500966389973 2.0243255779979568 C 21.555360794067383 2.312181408695709 23.981554817097884 4.814927851714911 23.985504150390625 8.653005806279237 L 23.99999237060547 19.887379166778828 C 24.005250237261254 24.071950214829613 21.376324971516922 26.646660157312535 17.162409464518227 26.653323491096003 L 6.8691870371500645 26.66666984558087 C 2.6816002527872715 26.67198131246099 0.019764260699351627 24.03596935357951 0.014498511950174967 19.839404261256764 L 0.000008836528650135733 8.736964116182977 C -0.0052480460296161855 4.873565472131494 2.3353773752848306 2.377482073564874 6.008237202962239 2.040317584045333 L 6.006920496622721 1.0408180802858111 C 6.005604056641459 0.45444505503443566 6.44002866744995 0.013332686394437495 7.019261042277018 0.013332686394437495 C 7.598493417104085 0.012000020413846147 8.03291730241229 0.4517797736751141 8.034233729044596 1.0381527989264896 L 8.035550435384113 1.9710189971371856 L 15.855187733968098 1.9603575538084528 L 15.853870391845703 1.0274914350706184 C 15.852553991911313 0.4411184098192429 16.286978522936504 0.0013386935622836072 16.8662109375 0.000003006992069907144 Z M 17.40331776936849 18.92252903594624 L 17.390153249104817 18.92252903594624 C 16.784592191378273 18.937188369028107 16.298826973885294 19.444934712527438 16.311991373697914 20.057960988472768 C 16.313307773632307 20.6709872644181 16.801706035931904 21.176067199036883 17.407267252604164 21.18939386660382 C 18.02467620372772 21.188061199847127 18.524921623213835 20.680316146540033 18.523607889811196 20.053963185643077 C 18.523607889811196 19.42761022474612 18.022043228149414 18.92252903594624 17.40331776936849 18.92252903594624 Z M 6.555875142415364 18.9238590937579 C 5.950314005215962 18.950515361937068 5.47639638138935 19.458260721959736 5.477710088094075 20.071286997905066 C 5.505357995629311 20.684313273850396 6.005604227383931 21.164073286391844 6.611165364583333 21.136087285743045 C 7.204878528912862 21.109433950609176 7.677479488154252 20.601688319882076 7.649834314982096 19.988661924727452 C 7.636669941246509 19.388962293997317 7.148271878560384 18.922529360356947 6.555875142415364 18.9238590937579 Z M 11.979596455891926 18.917196089041752 C 11.374035358428953 18.9451848886254 10.901434580485025 19.451597717243587 10.901434580485025 20.064623993188917 C 10.92907975365718 20.677650269134247 11.429325580596922 21.156077616160765 12.034886678059895 21.129424281026896 C 12.627283414204914 21.101438280378098 13.101200165847937 20.595025394638785 13.073554992675781 19.98066631906807 C 13.060390618940195 19.382299368754026 12.571993192036945 18.915866222306445 11.979596455891926 18.917196089041752 Z M 6.549292882283528 14.126261730025355 C 5.9437317450841265 14.152917998204524 5.471130840945989 14.660663239017898 5.472444534301758 15.273689634172522 C 5.498776013652484 15.886715910117852 6.000338673591614 16.366475922659298 6.605899810791016 16.3384899220105 C 7.198296546936035 16.31183658687663 7.67089724044005 15.804090836940235 7.64325205485026 15.191064560994905 C 7.630087681114673 14.591364930264767 7.143006046613057 14.124931996624401 6.549292882283528 14.126261730025355 Z M 11.97433090209961 14.079618153880734 C 11.368769804636637 14.106274287949448 10.894851518639673 14.614021053648354 10.896165211995442 15.227047329593685 C 10.922496691346167 15.840073605539015 11.424060026804606 16.318499680999746 12.029621124267578 16.291846345865878 C 12.622017860412598 16.26386034521708 13.094618186354637 15.757447380004907 13.068289438883463 15.144420984850283 C 13.053808639446894 14.544721354120146 12.566727638244629 14.078288287145428 11.97433090209961 14.079618153880734 Z M 17.398052215576172 14.086282430162669 C 16.79249099890391 14.099611896664449 16.318572792069364 14.592698166990889 16.319886525472004 15.20572444293622 L 16.319886525472004 15.22038305331175 C 16.333053592592478 15.83340932925708 16.833300312360127 16.298510008716665 17.44017791748047 16.28518334114973 C 18.03257457415263 16.270524008067863 18.505175019303955 15.762779055343612 18.492010752360024 15.14975266018899 C 18.464365551869072 14.563379714410475 17.98913248380025 14.084952563427363 17.398052215576172 14.086282430162669 Z M 15.857819875081379 4.012662983242544 L 8.038183212280273 4.023324426571277 L 8.039499918619791 5.101451041733002 C 8.039499918619791 5.675830062448846 7.6063917477925616 6.128936913703309 7.027159372965494 6.128936913703309 C 6.447926998138427 6.130269580460002 6.012186686197916 5.678495582226752 6.012186686197916 5.104116561510908 L 6.010869979858398 4.077963608375278 C 3.443817456563314 4.335168127262585 2.023381675903996 5.843746006737001 2.027322769165039 8.734298278513624 L 2.0286474227905273 9.148757516910722 L 21.959505716959633 9.122104226480337 L 21.959505716959633 8.655671008165697 C 21.902898917595543 5.7904394258762295 20.46534999211629 4.28719222832975 17.885133107503254 4.063304362216855 L 17.88645044962565 5.089457315352486 C 17.88645044962565 5.6625036556522375 17.440177917480465 6.1169428694313455 16.874109903971352 6.1169428694313455 C 16.294877489407856 6.1182755361880385 15.859137217203775 5.665168857538697 15.859137217203775 5.092122517238946 L 15.857819875081379 4.012662983242544 Z" fill="rgb(0,0,0)"/>
        </svg>